<svg viewBox="186 16 392 376" fill="none" xmlns="http://www.w3.org/2000/svg" role="img" aria-label="">
  <defs>
    <linearGradient id="body2" x1="0" y1="0" x2="0" y2="1">
      <stop offset="0" stop-color="#E08A5E"/><stop offset="1" stop-color="#D2744A"/>
    </linearGradient>
    <linearGradient id="belly2" x1="0" y1="0" x2="0" y2="1">
      <stop offset="0" stop-color="#F7DBBE"/><stop offset="1" stop-color="#F0CBA3"/>
    </linearGradient>
  </defs>
  <path d="M348 318 C 430 360, 520 352, 560 300 C 530 322, 470 318, 430 296 C 402 280, 372 286, 348 300 Z" fill="#C96A41"/>
  <ellipse cx="262" cy="360" rx="46" ry="20" fill="#C96A41"/>
  <ellipse cx="356" cy="362" rx="50" ry="20" fill="#D2744A"/>
  <path d="M300 150 C 372 150, 408 210, 408 280 C 408 340, 364 372, 300 372 C 236 372, 196 340, 196 280 C 196 210, 228 150, 300 150 Z" fill="url(#body2)"/>
  <path d="M300 214 C 348 214, 372 250, 372 292 C 372 332, 344 354, 300 354 C 256 354, 230 332, 230 292 C 230 250, 252 214, 300 214 Z" fill="url(#belly2)"/>
  <path d="M214 250 C 196 264, 196 292, 214 300 C 224 286, 226 266, 224 252 Z" fill="#C96A41"/>
  <path d="M386 250 C 404 264, 404 292, 386 300 C 376 286, 374 266, 376 252 Z" fill="#C96A41"/>
  <path d="M236 300 C 236 290, 250 286, 300 286 C 350 286, 364 290, 364 300 L 360 348 C 360 354, 340 358, 300 358 C 260 358, 240 354, 240 348 Z" fill="#E8B98C"/>
  <path d="M236 300 C 236 290, 250 286, 300 286 C 350 286, 364 290, 364 300" stroke="#D9A878" stroke-width="3" fill="none"/>
  <g transform="rotate(-9 264 286)">
    <rect x="240" y="252" width="58" height="56" rx="8" fill="#FFFBF5" stroke="#E0B48E" stroke-width="2"/>
    <rect x="256" y="262" width="32" height="5" rx="2.5" fill="#E8C7A6"/>
    <rect x="248" y="276" width="42" height="5" rx="2.5" fill="#EAD3B8"/>
    <rect x="248" y="287" width="34" height="5" rx="2.5" fill="#EAD3B8"/>
  </g>
  <g transform="rotate(8 336 286)">
    <rect x="306" y="252" width="58" height="56" rx="8" fill="#FFFBF5" stroke="#E0B48E" stroke-width="2"/>
    <rect x="322" y="262" width="32" height="5" rx="2.5" fill="#E8C7A6"/>
    <rect x="314" y="276" width="42" height="5" rx="2.5" fill="#EAD3B8"/>
    <rect x="314" y="287" width="28" height="5" rx="2.5" fill="#EAD3B8"/>
  </g>
  <g>
    <rect x="262" y="244" width="76" height="58" rx="8" fill="#FFFFFF" stroke="#D2744A" stroke-width="2.5"/>
    <text x="270" y="263" font-family="ui-monospace, Menlo, monospace" font-size="13" fill="#D2744A" font-weight="800">/usually</text>
    <rect x="270" y="273" width="50" height="6" rx="3" fill="#F0C9A4"/>
    <rect x="270" y="285" width="40" height="6" rx="3" fill="#F4D9BE"/>
  </g>
  <path d="M256 96 C 248 56, 256 30, 274 26 C 286 52, 284 86, 276 110 Z" fill="#D2744A"/>
  <path d="M250 92 C 248 64, 256 44, 268 42 C 274 62, 272 82, 268 100 Z" fill="#F0CBA3"/>
  <path d="M344 96 C 352 56, 344 30, 326 26 C 314 52, 316 86, 324 110 Z" fill="#D2744A"/>
  <path d="M350 92 C 352 64, 344 44, 332 42 C 326 62, 328 82, 332 100 Z" fill="#F0CBA3"/>
  <ellipse cx="300" cy="150" rx="74" ry="66" fill="url(#body2)"/>
  <ellipse cx="300" cy="170" rx="40" ry="32" fill="#F2D2AE"/>
  <circle cx="276" cy="142" r="11" fill="#3A2418"/>
  <circle cx="324" cy="142" r="11" fill="#3A2418"/>
  <circle cx="280" cy="138" r="3.5" fill="#FFF7EE"/>
  <circle cx="328" cy="138" r="3.5" fill="#FFF7EE"/>
  <ellipse cx="258" cy="166" rx="11" ry="7" fill="#EE9E73" opacity="0.55"/>
  <ellipse cx="342" cy="166" rx="11" ry="7" fill="#EE9E73" opacity="0.55"/>
  <ellipse cx="300" cy="162" rx="8" ry="6" fill="#7A4A2E"/>
  <path d="M286 176 C 294 186, 306 186, 314 176" stroke="#7A4A2E" stroke-width="3.5" fill="none" stroke-linecap="round"/>
</svg>
